# xmcd CD database file
# Copyright (C) 1993-1998 Ti Kan
# 
# Track frame offsets:
#     150
#     22487
#     43957
#     62950
#     80067
#     101257
#     116722
#     135350
#     150395
#     170960
#     183512
#     198717
#     218592
#     235432
#     258557
#     274812
#     290585
#     310387
# 
# Disc length: 4435 seconds
# 
# Revision: 1
# Processed by: cddbd v1.4b41PL1 Copyright (c) Steve Scherf et al.
# Submitted via: DiscPlay 4.0.4
# 
DISCID=1e115112
DTITLE=Rolling Stones - More Collectibles  1989-1995
DYEAR=1900
DGENRE=
TTITLE0=Fancy Man Blues
TTITLE1=Wish I'd Never Met You
TTITLE2=Cook Cook Blues
TTITLE3=Play With Fire (Live)
TTITLE4=Undercover Of The Night (Live)
TTITLE5=2000 Light Years From Home (Live)
TTITLE6=I Just Want To Make Love With You (Ive)
TTITLE7=Key To Highway
TTITLE8=Ruthless People
TTITLE9=The Storm
TTITLE10=So Young
TTITLE11=Jump On Top Of Me
TTITLE12=I'm Gonna Drive
TTITLE13=The Rocky Road To Dublin
TTITLE14=The Long Black Veil
TTITLE15=Black Limousine (live)
TTITLE16=All Down The Line (Live)
TTITLE17=Out Of Focus (12 Highpass)
EXTD=
EXTT0=
EXTT1=
EXTT2=
EXTT3=
EXTT4=
EXTT5=
EXTT6=
EXTT7=
EXTT8=
EXTT9=
EXTT10=
EXTT11=
EXTT12=
EXTT13=
EXTT14=
EXTT15=
EXTT16=
EXTT17=
PLAYORDER=
